:FULLY-SPECIFIED
:FORCE-ALL-JOINTS-BE-3DOF
:DEGREES
1427
root -2.08637 13.7129 12.6858 366.528 27.3473 366.368
lfemur 25.7709 -0.32307 -10.2043
ltibia 16.7066 0 0
lfoot -15.812 34.6243 0
ltoes -23.6752 0 0
rfemur -65.4035 -21.3039 12.1954
rtibia 74.2017 0 0
rfoot -9.43717 10.0978 0
rtoes 4.64513 0 0
lowerback 10.1572 2.03144 -10.1619
upperback -3.33953 1.23762 -0.922774
thorax -9.57912 1.17386 4.49286
lowerneck 0.0086865 -11.6909 -10.5287
upperneck 6.19433 -16.0865 9.62397
head 3.47456 -7.99779 3.86535
lclavicle 1.79082e-14 -2.19217e-14 0
lhumerus -73.6957 -17.9584 104.322
lradius 100.899 0 0
lwrist 58.2224 0 0
lhand -9.5208 41.7326 0
lfingers 7.12502 0 0
lthumb 16.445 -288.945 0
rclavicle 1.79082e-14 -2.19217e-14 0
rhumerus 63.2356 -13.9766 -27.8664
rradius 81.8722 0 0
rwrist 26.9734 0 0
rhand -43.9728 -31.3302 0
rfingers 7.12502 0 0
rthumb -16.7951 -60.6244 0
1428
root -2.09011 13.7113 12.6866 366.588 27.3209 366.417
lfemur 25.6186 -0.284334 -10.221
ltibia 16.8892 0 0
lfoot -15.8136 34.6536 0
ltoes -23.5819 0 0
rfemur -65.528 -21.3928 12.2588
rtibia 74.2166 0 0
rfoot -9.36401 10.2028 0
rtoes 4.72947 0 0
lowerback 10.1757 2.02111 -10.1747
upperback -3.35111 1.21882 -0.923357
thorax -9.60042 1.16696 4.50253
lowerneck -0.0144272 -11.673 -10.512
upperneck 6.17627 -16.0573 9.59728
head 3.46641 -7.98316 3.85662
lclavicle 1.42831e-14 -2.352e-14 0
lhumerus -73.6939 -18.0105 104.378
lradius 100.847 0 0
lwrist 58.2302 0 0
lhand -9.52203 41.5647 0
lfingers 7.12502 0 0
lthumb 16.4438 -289.112 0
rclavicle 1.42831e-14 -2.352e-14 0
rhumerus 63.1795 -13.9811 -27.8266
rradius 81.9569 0 0
rwrist 26.8732 0 0
rhand -43.8999 -31.2943 0
rfingers 7.12502 0 0
rthumb -16.7249 -60.5941 0
1429
root -2.09385 13.7096 12.6875 366.657 27.29 366.479
lfemur 25.4395 -0.23724 -10.24
ltibia 17.1148 0 0
lfoot -15.8202 34.6887 0
ltoes -23.52 0 0
rfemur -65.6805 -21.5026 12.3332
rtibia 74.2489 0 0
rfoot -9.28252 10.3274 0
rtoes 4.81966 0 0
lowerback 10.1998 2.00932 -10.193
upperback -3.36437 1.19648 -0.923438
thorax -9.62655 1.15899 4.51646
lowerneck -0.0430407 -11.652 -10.4902
upperneck 6.15585 -16.0225 9.56096
head 3.45668 -7.96576 3.84452
lclavicle 1.01303e-14 -2.50966e-14 0
lhumerus -73.6921 -18.0711 104.445
lradius 100.788 0 0
lwrist 58.2415 0 0
lhand -9.52497 41.3658 0
lfingers 7.12502 0 0
lthumb 16.441 -289.311 0
rclavicle 1.01303e-14 -2.50966e-14 0
rhumerus 63.1163 -13.9861 -27.7839
rradius 82.059 0 0
rwrist 26.7522 0 0
rhand -43.8098 -31.2493 0
rfingers 7.12502 0 0
rthumb -16.6381 -60.5561 0
1430
root -2.09708 13.709 12.6845 366.72 27.243 366.541
lfemur 25.2865 -0.187797 -10.2726
ltibia 17.326 0 0
lfoot -15.8291 34.7336 0
ltoes -23.4701 0 0
rfemur -65.8354 -21.6209 12.4066
rtibia 74.2906 0 0
rfoot -9.21089 10.5021 0
rtoes 4.89935 0 0
lowerback 10.2089 1.99864 -10.2252
upperback -3.38222 1.17443 -0.92502
thorax -9.64954 1.15199 4.53655
lowerneck -0.0578811 -11.6438 -10.4736
upperneck 6.13683 -16.0068 9.53529
head 3.44662 -7.95782 3.83478
lclavicle 5.68527e-15 -2.65152e-14 0
lhumerus -73.7394 -18.1287 104.527
lradius 100.737 0 0
lwrist 58.2642 0 0
lhand -9.51005 41.1656 0
lfingers 7.12502 0 0
lthumb 16.4554 -289.512 0
rclavicle 5.68527e-15 -2.65152e-14 0
rhumerus 63.084 -14.0255 -27.7472
rradius 82.1712 0 0
rwrist 26.6718 0 0
rhand -43.7483 -31.2063 0
rfingers 7.12502 0 0
rthumb -16.5789 -60.5188 0
1431
root -2.10032 13.7083 12.6816 366.763 27.1712 366.593
lfemur 25.2068 -0.14234 -10.3278
ltibia 17.4692 0 0
lfoot -15.8373 34.7904 0
ltoes -23.414 0 0
rfemur -65.967 -21.7338 12.467
rtibia 74.3318 0 0
rfoot -9.16474 10.7471 0
rtoes 4.9531 0 0
lowerback 10.1859 1.99144 -10.2767
upperback -3.40656 1.15639 -0.929816
thorax -9.66216 1.14778 4.56351
lowerneck -0.0424481 -11.6619 -10.4716
upperneck 6.12245 -16.0308 9.53845
head 3.43751 -7.96964 3.83267
lclavicle 1.24219e-15 -2.76354e-14 0
lhumerus -73.875 -18.1723 104.622
lradius 100.707 0 0
lwrist 58.3041 0 0
lhand -9.46171 40.9946 0
lfingers 7.12502 0 0
lthumb 16.502 -289.686 0
rclavicle 1.24219e-15 -2.76354e-14 0
rhumerus 63.1146 -14.1265 -27.7243
rradius 82.2848 0 0
rwrist 26.6849 0 0
rhand -43.7552 -31.1758 0
rfingers 7.12502 0 0
rthumb -16.5857 -60.4903 0
1432
root -2.10355 13.7077 12.6786 366.788 27.0791 366.635
lfemur 25.1897 -0.100629 -10.4019
ltibia 17.5539 0 0
lfoot -15.8451 34.8567 0
ltoes -23.3563 0 0
rfemur -66.0775 -21.8409 12.5153
rtibia 74.3721 0 0
rfoot -9.14023 11.0493 0
rtoes 4.98326 0 0
lowerback 10.1362 1.98729 -10.3444
upperback -3.43609 1.14193 -0.937298
thorax -9.66595 1.14599 4.59609
lowerneck -0.00146826 -11.7021 -10.4821
upperneck 6.11198 -16.0883 9.56608
head 3.42923 -7.99808 3.83711
lclavicle -3.15214e-15 -2.84606e-14 0
lhumerus -74.084 -18.2036 104.729
lradius 100.697 0 0
lwrist 58.3581 0 0
lhand -9.38584 40.8504 0
lfingers 7.12502 0 0
lthumb 16.5751 -289.835 0
rclavicle -3.15214e-15 -2.84606e-14 0
rhumerus 63.1982 -14.2786 -27.7131
rradius 82.3987 0 0
rwrist 26.7773 0 0
rhand -43.8196 -31.156 0
rfingers 7.12502 0 0
rthumb -16.6479 -60.4695 0
1433
root -2.10678 13.7071 12.6757 366.799 26.9712 366.67
lfemur 25.2248 -0.0624248 -10.4915
ltibia 17.5895 0 0
lfoot -15.8525 34.9302 0
ltoes -23.3014 0 0
rfemur -66.1694 -21.9421 12.5528
rtibia 74.4111 0 0
rfoot -9.13354 11.3955 0
rtoes 4.99217 0 0
lowerback 10.0651 1.98576 -10.4247
upperback -3.46949 1.1306 -0.946942
thorax -9.66243 1.14623 4.63301
lowerneck 0.0603316 -11.7602 -10.503
upperneck 6.10469 -16.1729 9.61385
head 3.4217 -8.04001 3.847
lclavicle -7.45091e-15 -2.89943e-14 0
lhumerus -74.3517 -18.2243 104.843
lradius 100.702 0 0
lwrist 58.4232 0 0
lhand -9.28829 40.7307 0
lfingers 7.12502 0 0
lthumb 16.6692 -289.96 0
rclavicle -7.45091e-15 -2.89943e-14 0
rhumerus 63.3251 -14.4715 -27.7117
rradius 82.5119 0 0
rwrist 26.9346 0 0
rhand -43.9307 -31.1451 0
rfingers 7.12502 0 0
rthumb -16.7552 -60.4551 0
1434
root -2.11002 13.7065 12.6727 366.798 26.8518 366.698
lfemur 25.3012 -0.0274877 -10.5927
ltibia 17.5853 0 0
lfoot -15.8599 35.0084 0
ltoes -23.2538 0 0
rfemur -66.2449 -22.037 12.5807
rtibia 74.4485 0 0
rfoot -9.14083 11.7724 0
rtoes 4.98218 0 0
lowerback 9.97815 1.98643 -10.5143
upperback -3.50545 1.12196 -0.95822
thorax -9.65314 1.14813 4.673
lowerneck 0.138225 -11.8319 -10.5323
upperneck 6.09985 -16.2784 9.67742
head 3.41482 -8.0923 3.86125
lclavicle -1.16073e-14 -2.92399e-14 0
lhumerus -74.6633 -18.2358 104.962
lradius 100.721 0 0
lwrist 58.4964 0 0
lhand -9.17496 40.6332 0
lfingers 7.12502 0 0
lthumb 16.7784 -290.064 0
rclavicle -1.16073e-14 -2.92399e-14 0
rhumerus 63.4854 -14.6949 -27.7182
rradius 82.6233 0 0
rwrist 27.1425 0 0
rhand -44.0779 -31.1414 0
rfingers 7.12502 0 0
rthumb -16.8973 -60.4459 0
1435
root -2.11325 13.7058 12.6697 366.788 26.7255 366.72
lfemur 25.4083 0.00442183 -10.702
ltibia 17.5508 0 0
lfoot -15.8673 35.0891 0
ltoes -23.2181 0 0
rfemur -66.3064 -22.1256 12.6002
rtibia 74.4838 0 0
rfoot -9.15829 12.1669 0
rtoes 4.95566 0 0
lowerback 9.88065 1.98886 -10.6099
upperback -3.54265 1.11558 -0.970607
thorax -9.6396 1.1513 4.7148
lowerneck 0.227485 -11.9131 -10.5678
upperneck 6.09671 -16.3983 9.75244
head 3.40848 -8.15182 3.87874
lclavicle -1.55745e-14 -2.9201e-14 0
lhumerus -75.0039 -18.24 105.083
lradius 100.749 0 0
lwrist 58.5747 0 0
lhand -9.05172 40.5556 0
lfingers 7.12502 0 0
lthumb 16.8972 -290.149 0
rclavicle -1.55745e-14 -2.9201e-14 0
rhumerus 63.6694 -14.9385 -27.7307
rradius 82.732 0 0
rwrist 27.3866 0 0
rhand -44.2503 -31.143 0
rfingers 7.12502 0 0
rthumb -17.0637 -60.4406 0
1436
root -2.11648 13.7052 12.6668 366.771 26.5966 366.739
lfemur 25.5357 0.0335434 -10.8159
ltibia 17.4953 0 0
lfoot -15.8751 35.1699 0
ltoes -23.1986 0 0
rfemur -66.3562 -22.2075 12.6122
rtibia 74.5165 0 0
rfoot -9.18207 12.5658 0
rtoes 4.91494 0 0
lowerback 9.77804 1.99264 -10.7081
upperback -3.57977 1.11101 -0.983577
thorax -9.62335 1.15535 4.75714
lowerneck 0.323385 -11.9997 -10.6076
upperneck 6.09454 -16.5265 9.83458
head 3.40259 -8.21545 3.8984
lclavicle -1.93058e-14 -2.88809e-14 0
lhumerus -75.3586 -18.2385 105.202
lradius 100.785 0 0
lwrist 58.6551 0 0
lhand -8.92444 40.4956 0
lfingers 7.12502 0 0
lthumb 17.0199 -290.217 0
rclavicle -1.93058e-14 -2.88809e-14 0
rhumerus 63.8672 -15.1919 -27.7472
rradius 82.8369 0 0
rwrist 27.6525 0 0
rhand -44.4372 -31.1481 0
rfingers 7.12502 0 0
rthumb -17.244 -60.438 0
1437
root -2.11972 13.7046 12.6638 366.751 26.4696 366.756
lfemur 25.6725 0.0601165 -10.9306
ltibia 17.4284 0 0
lfoot -15.8834 35.2484 0
ltoes -23.1999 0 0
rfemur -66.3967 -22.2825 12.6182
rtibia 74.5464 0 0
rfoot -9.20835 12.9558 0
rtoes 4.86238 0 0
lowerback 9.67571 1.99733 -10.8056
upperback -3.61551 1.10782 -0.996603
thorax -9.6059 1.15992 4.79875
lowerneck 0.421198 -12.0874 -10.6495
upperneck 6.09262 -16.6566 9.91947
head 3.39706 -8.28004 3.91913
lclavicle -2.27542e-14 -2.82831e-14 0
lhumerus -75.7128 -18.2328 105.317
lradius 100.826 0 0
lwrist 58.7344 0 0
lhand -8.79901 40.4509 0
lfingers 7.12502 0 0
lthumb 17.1409 -290.269 0
rclavicle -2.27542e-14 -2.82831e-14 0
rhumerus 64.0691 -15.4447 -27.7659
rradius 82.937 0 0
rwrist 27.9261 0 0
rhand -44.6278 -31.155 0
rfingers 7.12502 0 0
rthumb -17.4279 -60.4368 0
1438
root -2.12295 13.7039 12.6608 366.729 26.349 366.772
lfemur 25.8081 0.0843808 -11.0426
ltibia 17.3594 0 0
lfoot -15.8925 35.3222 0
ltoes -23.2265 0 0
rfemur -66.4302 -22.3504 12.6191
rtibia 74.573 0 0
rfoot -9.2333 13.3238 0
rtoes 4.80032 0 0
lowerback 9.57908 2.0025 -10.899
upperback -3.64854 1.10556 -1.00916
thorax -9.58879 1.16461 4.83836
lowerneck 0.516198 -12.1721 -10.6915
upperneck 6.0902 -16.7823 10.0028
head 3.39178 -8.34246 3.93983
lclavicle -2.5873e-14 -2.74112e-14 0
lhumerus -76.0515 -18.2246 105.424
lradius 100.868 0 0
lwrist 58.8099 0 0
lhand -8.6813 40.4191 0
lfingers 7.12502 0 0
lthumb 17.2544 -290.308 0
rclavicle -2.5873e-14 -2.74112e-14 0
rhumerus 64.2653 -15.6867 -27.7847
rradius 83.0313 0 0
rwrist 28.1928 0 0
rhand -44.8114 -31.1618 0
rfingers 7.12502 0 0
rthumb -17.605 -60.4358 0
1439
root -2.12618 13.7033 12.6579 366.709 26.2391 366.788
lfemur 25.932 0.106576 -11.1482
ltibia 17.2977 0 0
lfoot -15.9024 35.3891 0
ltoes -23.2827 0 0
rfemur -66.459 -22.411 12.6162
rtibia 74.596 0 0
rfoot -9.25309 13.6565 0
rtoes 4.73113 0 0
lowerback 9.49354 2.00774 -10.9849
upperback -3.67756 1.1038 -1.02072
thorax -9.57355 1.16904 4.87471
lowerneck 0.603658 -12.2495 -10.7314
upperneck 6.08656 -16.8973 10.0802
head 3.38666 -8.3996 3.95939
lclavicle -2.86154e-14 -2.62685e-14 0
lhumerus -76.36 -18.2156 105.52
lradius 100.909 0 0
lwrist 58.8783 0 0
lhand -8.57719 40.398 0
lfingers 7.12502 0 0
lthumb 17.3547 -290.335 0
rclavicle -2.86154e-14 -2.62685e-14 0
rhumerus 64.446 -15.9075 -27.8017
rradius 83.1188 0 0
rwrist 28.4383 0 0
rhand -44.9771 -31.1667 0
rfingers 7.12502 0 0
rthumb -17.765 -60.4338 0
